HIERARCHY
ROOT Hips
{
	OFFSET 0.000000 71.427986 0.000000
	CHANNELS 6 Xposition Yposition Zposition Xrotation Yrotation Zrotation
	JOINT Pelvis
	{
		OFFSET 0.000000 0.000000 0.000000
		CHANNELS 3 Xrotation Yrotation Zrotation
		JOINT LeftUpLeg
		{
			OFFSET 6.797100 -2.508499 -1.318700
			CHANNELS 3 Xrotation Yrotation Zrotation
			JOINT LeftLeg
			{
				OFFSET 0.069008 -29.241863 0.690200
				CHANNELS 3 Xrotation Yrotation Zrotation
				JOINT LeftFoot
				{
					OFFSET -0.069008 -29.568123 -0.266800
					CHANNELS 3 Xrotation Yrotation Zrotation
					JOINT LeftToeBase
					{
						OFFSET 3.145500 -8.631000 16.059900
						CHANNELS 3 Xrotation Yrotation Zrotation
						End Site
						{
							OFFSET 0.000000 18.501587 0.000000
						}
					}
				}
			}
			JOINT Left_ShortSleeve
			{
				OFFSET 0.265923 -10.480953 1.153800
				CHANNELS 3 Xrotation Yrotation Zrotation
				End Site
				{
					OFFSET 1.725763 19.823879 0.000000
				}
			}
		}
		JOINT RightUpLeg
		{
			OFFSET -6.797100 -2.508499 -1.318700
			CHANNELS 3 Xrotation Yrotation Zrotation
			JOINT RightLeg
			{
				OFFSET -0.082453 -29.241932 0.688000
				CHANNELS 3 Xrotation Yrotation Zrotation
				JOINT RightFoot
				{
					OFFSET 0.082453 -29.568058 -0.264600
					CHANNELS 3 Xrotation Yrotation Zrotation
					JOINT RightToeBase
					{
						OFFSET -3.115300 -8.682800 16.113400
						CHANNELS 3 Xrotation Yrotation Zrotation
						End Site
						{
							OFFSET 0.000000 18.567114 0.000000
						}
					}
				}
			}
			JOINT Right_ShortSleeve
			{
				OFFSET -0.265923 -10.480953 1.153800
				CHANNELS 3 Xrotation Yrotation Zrotation
				End Site
				{
					OFFSET -1.725766 19.823910 0.000000
				}
			}
		}
	}
	JOINT Spine
	{
		OFFSET 0.000000 13.368103 0.470500
		CHANNELS 3 Xrotation Yrotation Zrotation
		JOINT Spine1
		{
			OFFSET 0.147000 13.837402 0.538800
			CHANNELS 3 Xrotation Yrotation Zrotation
			JOINT Spine2
			{
				OFFSET 0.168000 16.242897 -1.435500
				CHANNELS 3 Xrotation Yrotation Zrotation
				JOINT Neck
				{
					OFFSET 0.217200 18.631500 -1.679100
					CHANNELS 3 Xrotation Yrotation Zrotation
					JOINT Head
					{
						OFFSET 0.000000 6.599396 1.385900
						CHANNELS 3 Xrotation Yrotation Zrotation
						JOINT Hat
						{
							OFFSET -0.532200 27.220596 -10.096100
							CHANNELS 3 Xrotation Yrotation Zrotation
							End Site
							{
								OFFSET 0.000000 22.029861 0.000000
							}
						}
						JOINT HairD
						{
							OFFSET -10.777400 17.437393 -1.325900
							CHANNELS 3 Xrotation Yrotation Zrotation
							JOINT HairD1
							{
								OFFSET -3.290299 -11.051193 1.062200
								CHANNELS 3 Xrotation Yrotation Zrotation
								End Site
								{
									OFFSET 0.000000 11.579437 0.000000
								}
							}
						}
						JOINT HairB
						{
							OFFSET -10.777400 17.437393 1.467900
							CHANNELS 3 Xrotation Yrotation Zrotation
							JOINT HairB1
							{
								OFFSET -1.561200 -12.956299 3.590200
								CHANNELS 3 Xrotation Yrotation Zrotation
								End Site
								{
									OFFSET 0.000000 13.534866 0.000000
								}
							}
						}
						JOINT HairA
						{
							OFFSET 9.713100 17.437393 1.467900
							CHANNELS 3 Xrotation Yrotation Zrotation
							JOINT HairA1
							{
								OFFSET 1.561200 -12.956299 3.590200
								CHANNELS 3 Xrotation Yrotation Zrotation
								End Site
								{
									OFFSET 0.000000 13.534866 0.000000
								}
							}
						}
						JOINT HairC
						{
							OFFSET 9.713100 17.437393 -1.325900
							CHANNELS 3 Xrotation Yrotation Zrotation
							JOINT HairC1
							{
								OFFSET 3.290300 -11.051193 1.062200
								CHANNELS 3 Xrotation Yrotation Zrotation
								End Site
								{
									OFFSET 0.000000 11.579437 0.000000
								}
							}
						}
					}
				}
				JOINT LeftShoulder
				{
					OFFSET 5.101800 15.108002 -2.763700
					CHANNELS 3 Xrotation Yrotation Zrotation
					JOINT LeftArm
					{
						OFFSET 9.825497 2.506317 -1.597400
						CHANNELS 3 Xrotation Yrotation Zrotation
						JOINT LeftForeArm
						{
							OFFSET 21.966244 0.000000 0.000000
							CHANNELS 3 Xrotation Yrotation Zrotation
							JOINT LeftHand
							{
								OFFSET 33.879036 0.000000 0.000000
								CHANNELS 3 Xrotation Yrotation Zrotation
								JOINT LeftHandThumb1
								{
									OFFSET 6.715286 -2.359680 3.363841
									CHANNELS 3 Xrotation Yrotation Zrotation
									JOINT LeftHandThumb2
									{
										OFFSET 2.507072 -1.447464 1.447461
										CHANNELS 3 Xrotation Yrotation Zrotation
										JOINT LeftHandThumb3
										{
											OFFSET 2.898338 -1.673355 1.673357
											CHANNELS 3 Xrotation Yrotation Zrotation
											End Site
											{
												OFFSET -0.295959 3.727692 -0.131651
											}
										}
									}
								}
								JOINT LeftHandIndex1
								{
									OFFSET 14.190811 -0.254547 3.840278
									CHANNELS 3 Xrotation Yrotation Zrotation
									JOINT LeftHandIndex2
									{
										OFFSET 3.551727 0.000000 -0.000000
										CHANNELS 3 Xrotation Yrotation Zrotation
										JOINT LeftHandIndex3
										{
											OFFSET 2.894196 0.000000 0.000000
											CHANNELS 3 Xrotation Yrotation Zrotation
											End Site
											{
												OFFSET -1.000603 2.690872 0.366626
											}
										}
									}
								}
								JOINT LeftHandMiddle1
								{
									OFFSET 13.776489 0.000000 0.000000
									CHANNELS 3 Xrotation Yrotation Zrotation
									JOINT LeftHandMiddle2
									{
										OFFSET 3.438232 0.000000 0.000000
										CHANNELS 3 Xrotation Yrotation Zrotation
										JOINT LeftHandMiddle3
										{
											OFFSET 3.691551 0.000000 0.000000
											CHANNELS 3 Xrotation Yrotation Zrotation
											End Site
											{
												OFFSET -1.082298 3.499527 0.457670
											}
										}
									}
								}
								JOINT LeftHandRing1
								{
									OFFSET 13.966164 -0.268127 -3.067488
									CHANNELS 3 Xrotation Yrotation Zrotation
									JOINT LeftHandRing2
									{
										OFFSET 3.162567 0.000000 0.000000
										CHANNELS 3 Xrotation Yrotation Zrotation
										JOINT LeftHandRing3
										{
											OFFSET 3.324348 0.000000 0.000000
											CHANNELS 3 Xrotation Yrotation Zrotation
											End Site
											{
												OFFSET -0.861900 3.184998 0.405154
											}
										}
									}
								}
								JOINT LeftHandPinky1
								{
									OFFSET 13.131393 -0.168503 -5.746925
									CHANNELS 3 Xrotation Yrotation Zrotation
									JOINT LeftHandPinky2
									{
										OFFSET 2.849182 0.000000 0.000000
										CHANNELS 3 Xrotation Yrotation Zrotation
										JOINT LeftHandPinky3
										{
											OFFSET 2.805038 0.000000 0.000000
											CHANNELS 3 Xrotation Yrotation Zrotation
											End Site
											{
												OFFSET -0.882500 2.642609 0.325652
											}
										}
									}
								}
							}
							JOINT Left_Sleeve
							{
								OFFSET 6.592125 -0.646545 0.805568
								CHANNELS 3 Xrotation Yrotation Zrotation
								End Site
								{
									OFFSET -0.000179 20.275787 -0.000000
								}
							}
						}
					}
				}
				JOINT RightShoulder
				{
					OFFSET -5.731700 15.108002 -2.763700
					CHANNELS 3 Xrotation Yrotation Zrotation
					JOINT RightArm
					{
						OFFSET -9.825497 2.506317 -1.597400
						CHANNELS 3 Xrotation Yrotation Zrotation
						JOINT RightForeArm
						{
							OFFSET -21.966242 0.000000 0.000000
							CHANNELS 3 Xrotation Yrotation Zrotation
							JOINT RightHand
							{
								OFFSET -33.879032 0.000000 0.000000
								CHANNELS 3 Xrotation Yrotation Zrotation
								JOINT RightHandThumb1
								{
									OFFSET -6.715286 -2.359680 3.363841
									CHANNELS 3 Xrotation Yrotation Zrotation
									JOINT RightHandThumb2
									{
										OFFSET -2.507072 -1.447464 1.447461
										CHANNELS 3 Xrotation Yrotation Zrotation
										JOINT RightHandThumb3
										{
											OFFSET -2.898338 -1.673355 1.673357
											CHANNELS 3 Xrotation Yrotation Zrotation
											End Site
											{
												OFFSET 0.295959 3.727692 -0.131651
											}
										}
									}
								}
								JOINT RightHandIndex1
								{
									OFFSET -14.190811 -0.254547 3.840278
									CHANNELS 3 Xrotation Yrotation Zrotation
									JOINT RightHandIndex2
									{
										OFFSET -3.551727 0.000000 -0.000000
										CHANNELS 3 Xrotation Yrotation Zrotation
										JOINT RightHandIndex3
										{
											OFFSET -2.894196 0.000000 0.000000
											CHANNELS 3 Xrotation Yrotation Zrotation
											End Site
											{
												OFFSET 1.000603 2.690872 0.366626
											}
										}
									}
								}
								JOINT RightHandMiddle1
								{
									OFFSET -13.776489 0.000000 0.000000
									CHANNELS 3 Xrotation Yrotation Zrotation
									JOINT RightHandMiddle2
									{
										OFFSET -3.438232 0.000000 0.000000
										CHANNELS 3 Xrotation Yrotation Zrotation
										JOINT RightHandMiddle3
										{
											OFFSET -3.691551 0.000000 0.000000
											CHANNELS 3 Xrotation Yrotation Zrotation
											End Site
											{
												OFFSET 1.082298 3.499527 0.457670
											}
										}
									}
								}
								JOINT RightHandRing1
								{
									OFFSET -13.966164 -0.268127 -3.067488
									CHANNELS 3 Xrotation Yrotation Zrotation
									JOINT RightHandRing2
									{
										OFFSET -3.162567 0.000000 0.000000
										CHANNELS 3 Xrotation Yrotation Zrotation
										JOINT RightHandRing3
										{
											OFFSET -3.324348 0.000000 0.000000
											CHANNELS 3 Xrotation Yrotation Zrotation
											End Site
											{
												OFFSET 0.861900 3.184998 0.405154
											}
										}
									}
								}
								JOINT RightHandPinky1
								{
									OFFSET -13.131393 -0.168503 -5.746925
									CHANNELS 3 Xrotation Yrotation Zrotation
									JOINT RightHandPinky2
									{
										OFFSET -2.849182 0.000000 0.000000
										CHANNELS 3 Xrotation Yrotation Zrotation
										JOINT RightHandPinky3
										{
											OFFSET -2.805038 0.000000 0.000000
											CHANNELS 3 Xrotation Yrotation Zrotation
											End Site
											{
												OFFSET 0.882500 2.642609 0.325652
											}
										}
									}
								}
							}
							JOINT Right_Sleeve
							{
								OFFSET -6.592125 -0.646545 0.805568
								CHANNELS 3 Xrotation Yrotation Zrotation
								End Site
								{
									OFFSET 0.000179 20.275787 -0.000000
								}
							}
						}
					}
				}
				JOINT Bind_Right_JacketString
				{
					OFFSET -3.534800 11.969597 7.200700
					CHANNELS 3 Xrotation Yrotation Zrotation
					JOINT Bind_Right_JacketString1
					{
						OFFSET -0.319900 -6.102600 2.794100
						CHANNELS 3 Xrotation Yrotation Zrotation
						End Site
						{
							OFFSET 0.000000 6.719452 0.000000
						}
					}
				}
				JOINT Bind_Left_JacketString
				{
					OFFSET 2.904800 11.969597 7.200700
					CHANNELS 3 Xrotation Yrotation Zrotation
					JOINT Bind_Left_JacketString1
					{
						OFFSET 0.364800 -5.904503 3.186800
						CHANNELS 3 Xrotation Yrotation Zrotation
						End Site
						{
							OFFSET 0.000000 6.719513 0.000000
						}
					}
				}
				JOINT HairE
				{
					OFFSET 5.915200 17.612701 -11.592200
					CHANNELS 3 Xrotation Yrotation Zrotation
					JOINT HairE1
					{
						OFFSET 0.289200 -7.171898 -1.284500
						CHANNELS 3 Xrotation Yrotation Zrotation
						End Site
						{
							OFFSET 0.000000 7.291756 0.000000
						}
					}
				}
				JOINT HairF
				{
					OFFSET -0.864800 17.612701 -11.592200
					CHANNELS 3 Xrotation Yrotation Zrotation
					JOINT HairF1
					{
						OFFSET 0.000000 -14.087097 -2.127501
						CHANNELS 3 Xrotation Yrotation Zrotation
						End Site
						{
							OFFSET 0.000000 14.246841 0.000000
						}
					}
				}
				JOINT HairG
				{
					OFFSET -8.087700 17.612701 -11.592200
					CHANNELS 3 Xrotation Yrotation Zrotation
					JOINT HairG1
					{
						OFFSET -0.293600 -6.081398 -0.910100
						CHANNELS 3 Xrotation Yrotation Zrotation
						End Site
						{
							OFFSET 0.000000 6.156120 0.000000
						}
					}
				}
			}
		}
	}
	JOINT Pouch
	{
		OFFSET 0.000000 4.394501 10.847300
		CHANNELS 3 Xrotation Yrotation Zrotation
		End Site
		{
			OFFSET 0.000000 21.880577 0.000000
		}
	}
	JOINT Bag
	{
		OFFSET -13.229000 4.813004 -0.593300
		CHANNELS 3 Xrotation Yrotation Zrotation
		End Site
		{
			OFFSET 0.000000 21.880577 0.000000
		}
	}
	JOINT OccupyGuyFacialAnim_Joint
	{
		OFFSET 1.000000 -70.206398 -1.655000
		CHANNELS 3 Xrotation Yrotation Zrotation
		End Site
		{
			OFFSET 0.000000 21.880577 0.000000
		}
	}
}
MOTION
Frames: 4
Frame Time: 0.033333
2.046591 60.337978 41.824966 33.475345 12.017093 6.958565 0.000003 -0.000001 -0.000000 -28.187182 17.466445 5.986029 55.891076 7.352450 -10.440358 -32.732869 1.176904 -8.554322 -0.000000 -0.000003 0.000001 -0.000001 -0.000002 0.000001 -90.347639 -17.095067 -16.446349 65.508071 16.810311 -20.631807 -10.823243 0.825780 -1.434540 -0.000000 0.000000 -0.000000 -0.000002 0.000000 -0.000001 19.438642 3.977758 3.033882 -1.434934 -2.356555 7.790545 -1.575241 0.386410 8.001776 -4.817053 -5.624806 -6.606402 -39.712926 0.032253 -13.680944 0.000001 -0.000001 -0.000000 0.000001 -0.000001 -0.000000 0.000001 -0.000001 -0.000000 0.000001 -0.000001 -0.000000 0.000000 -0.000001 -0.000000 0.000001 -0.000001 -0.000000 0.000000 -0.000001 -0.000000 0.000001 -0.000001 -0.000000 0.000001 -0.000001 -0.000000 13.258007 -18.777254 31.052902 -90.515258 -7.083897 -25.258414 174.584034 -138.862322 172.565686 -8.764799 55.296696 14.755247 17.572256 -5.638214 -12.938320 10.832228 26.078142 8.642461 0.000002 0.000001 0.000001 15.484807 -5.550328 -63.252531 0.585441 1.075272 -76.370934 -0.000000 -0.000003 -0.000002 9.030862 -0.916459 -71.307790 2.038238 1.176299 -73.153717 -0.000002 0.000003 -0.000001 8.707498 1.526065 -79.450564 -0.140203 1.022512 -61.946052 -0.000001 0.000003 0.000003 10.544211 13.742414 -85.128001 0.878067 0.047633 -65.582903 0.000000 0.000000 -0.000001 -0.000000 -0.000001 0.000000 11.829057 -18.155550 31.948032 -16.675043 -10.330896 32.146002 3.760664 35.602740 -4.995260 -27.268624 0.620709 13.433871 12.416050 -1.218170 -14.168691 -2.077236 -28.986811 4.084075 -0.000000 0.000001 -0.000000 1.184039 -2.861363 6.311082 -1.900977 -1.857061 14.005969 -0.000002 0.000000 0.000000 -0.853297 -4.023303 10.343309 -0.260222 -4.138567 20.219827 -0.000002 -0.000000 -0.000001 -1.425300 -6.072669 9.062282 2.763516 -3.732552 24.915079 -0.000003 -0.000003 -0.000001 -5.692676 -7.972164 17.658993 7.084053 -0.905197 25.923968 -0.000001 0.000000 -0.000001 -0.000001 -0.000001 0.000001 -0.000000 0.000001 0.000000 -0.000000 -0.000000 -0.000001 -0.000000 0.000001 -0.000000 -0.000000 0.000001 -0.000000 -0.000000 0.000001 0.000000 -0.000000 -0.000000 -0.000000 -0.000000 0.000001 -0.000000 -0.000000 0.000001 -0.000000 -0.000000 0.000001 0.000000 -0.000000 -0.000000 -0.000000 0.000003 -0.000001 -0.000000 0.000003 -0.000001 -0.000000 0.000003 -0.000001 -0.000000 
2.518326 60.219860 41.480202 31.981012 12.174849 7.443730 -0.000001 -0.000000 0.000001 -27.397490 17.309957 5.568146 57.209504 6.786101 -10.507742 -33.124659 1.175651 -8.282775 0.000000 -0.000000 -0.000000 0.000001 -0.000003 0.000000 -89.596885 -16.359338 -17.156047 65.918326 17.046146 -20.691266 -10.602879 0.544128 -0.886671 -0.000000 -0.000000 -0.000000 -0.000000 -0.000001 -0.000002 20.376193 4.247301 4.482736 -1.640290 -2.146909 7.215335 -1.776953 0.473406 7.390304 -3.582955 -5.456422 -6.435557 -40.279763 0.474434 -14.099314 0.000000 0.000000 -0.000000 0.000000 0.000000 -0.000000 0.000000 0.000000 -0.000000 0.000000 0.000000 -0.000000 0.000000 0.000000 -0.000000 0.000000 0.000000 -0.000000 0.000000 0.000000 -0.000000 0.000000 0.000000 -0.000000 0.000000 0.000000 -0.000000 10.002201 -18.161408 22.227433 -89.616788 -1.473734 -26.749297 174.234055 -124.916128 168.185690 -0.791740 58.573168 12.089036 17.561449 -5.670136 -12.935163 10.856543 26.144137 8.645576 -0.000001 -0.000003 0.000000 14.713242 -7.695093 -61.308297 0.565351 1.085608 -75.287331 0.000001 -0.000003 -0.000001 9.020703 -0.903038 -71.252076 2.041381 1.172435 -73.296543 0.000002 0.000001 0.000003 8.748819 1.308836 -80.876987 -0.106170 1.029068 -63.601041 -0.000003 -0.000000 0.000002 10.681374 13.771961 -85.223631 0.878025 0.048248 -65.540214 -0.000000 0.000001 0.000001 0.000000 -0.000000 -0.000000 10.594064 -14.315629 30.585515 -18.614221 -9.847819 30.826935 4.554050 35.446223 -5.602731 -29.330349 1.614453 10.245611 12.709444 -1.288112 -14.467104 -2.096138 -29.186259 4.397835 -0.000002 -0.000005 0.000001 1.174217 -2.925175 6.446798 -1.933252 -1.908769 14.307792 0.000001 0.000000 0.000000 -0.779513 -4.099571 10.571366 -0.233744 -4.232950 20.657077 0.000001 0.000001 -0.000002 -1.318281 -6.190115 9.267717 2.861020 -3.789275 25.457483 -0.000002 -0.000001 -0.000000 -5.761500 -8.182956 18.025281 7.165377 -0.682652 26.450353 0.000002 0.000000 0.000001 0.000000 0.000002 -0.000001 -0.000000 0.000000 0.000001 -0.000000 -0.000000 -0.000001 -0.000000 0.000000 0.000001 -0.000000 0.000000 0.000001 -0.000000 0.000000 0.000001 -0.000000 -0.000000 -0.000000 -0.000000 0.000000 0.000001 -0.000000 0.000000 0.000001 -0.000000 0.000000 0.000001 -0.000000 -0.000000 -0.000000 -0.000001 -0.000000 0.000001 -0.000001 -0.000000 0.000001 -0.000001 -0.000000 0.000001 
3.072401 60.053791 41.059593 30.033469 12.626435 8.129005 -0.000001 -0.000000 0.000000 -26.357659 16.960961 4.847061 58.790348 5.930561 -10.369868 -33.512183 1.238143 -7.960014 -0.000001 -0.000000 0.000000 0.000002 0.000003 -0.000000 -88.748480 -15.234699 -18.473488 66.556949 17.370515 -20.418789 -10.375846 0.286708 -0.335319 0.000000 -0.000000 -0.000000 -0.000002 -0.000002 0.000000 21.397577 4.783670 5.583414 -1.745483 -1.679474 6.777013 -1.860835 0.803865 6.845942 -3.057921 -5.441138 -5.807733 -40.369577 0.797232 -14.512977 -0.000000 -0.000000 0.000000 -0.000000 -0.000000 0.000000 -0.000000 -0.000000 -0.000000 -0.000000 -0.000000 0.000000 -0.000000 -0.000000 0.000000 -0.000000 -0.000000 0.000000 -0.000000 -0.000000 0.000000 -0.000000 -0.000000 0.000000 -0.000000 -0.000000 0.000000 6.949501 -15.690855 14.557022 -84.449668 3.993622 -29.771521 185.422834 -110.297064 177.526684 -0.312120 60.154842 8.142204 17.560292 -5.673547 -12.934825 10.836969 26.091061 8.643079 0.000001 -0.000000 -0.000001 14.469771 -7.526500 -59.757694 0.534477 1.100426 -73.663515 0.000002 0.000000 -0.000004 9.021847 -0.766734 -70.419701 2.022975 1.199170 -72.550823 0.000005 0.000002 -0.000001 8.770969 1.153169 -81.890485 -0.085793 1.031479 -64.734026 0.000001 0.000001 0.000005 10.651467 13.765111 -85.201815 0.877986 0.048883 -65.497846 -0.000001 -0.000006 0.000000 -0.000001 -0.000000 -0.000000 9.339227 -10.925986 28.583602 -19.880307 -10.064735 29.945605 4.589548 35.924688 -6.106155 -31.066064 1.161306 7.887115 13.000462 -1.357080 -14.762571 -2.113480 -29.385277 4.709780 0.000000 0.000001 -0.000000 1.164291 -2.987539 6.579081 -1.964976 -1.960348 14.601872 -0.000001 -0.000000 0.000002 -0.705969 -4.173199 10.793961 -0.206536 -4.326583 21.083604 0.000001 -0.000001 0.000001 -1.211558 -6.303690 9.468590 2.958650 -3.844679 25.986848 -0.000001 -0.000001 -0.000002 -5.826190 -8.389638 18.381962 7.242310 -0.460720 26.962819 0.000001 0.000001 0.000001 -0.000000 0.000003 0.000001 -0.000001 -0.000001 -0.000000 -0.000003 -0.000001 0.000000 -0.000001 -0.000001 -0.000000 -0.000001 -0.000001 -0.000000 -0.000001 -0.000001 -0.000000 -0.000003 -0.000001 0.000000 -0.000001 -0.000001 -0.000000 -0.000001 -0.000001 -0.000000 -0.000001 -0.000001 -0.000000 -0.000003 -0.000001 0.000000 -0.000001 -0.000000 0.000000 -0.000001 -0.000000 0.000000 -0.000001 -0.000000 0.000000 
3.697613 59.848831 40.576088 27.982993 13.098314 8.704143 0.000001 -0.000000 0.000001 -25.649580 16.342337 4.009172 60.835218 5.105633 -9.882052 -33.927858 1.447437 -7.780037 0.000002 0.000003 -0.000001 -0.000000 0.000001 0.000000 -87.840611 -14.146621 -19.900607 67.178237 17.761888 -20.076463 -10.070930 0.011912 0.283241 -0.000000 -0.000000 -0.000000 -0.000002 0.000000 0.000001 22.205464 5.469623 6.426728 -1.807542 -1.029033 6.408572 -1.883461 1.300178 6.320380 -2.961726 -5.405898 -4.818843 -40.092415 0.899565 -14.599917 -0.000000 0.000000 0.000000 -0.000000 0.000000 0.000000 -0.000000 0.000000 0.000001 -0.000000 0.000000 -0.000001 -0.000000 0.000000 0.000000 -0.000000 0.000000 -0.000001 -0.000000 0.000000 0.000000 -0.000000 0.000000 0.000000 -0.000000 0.000000 0.000000 3.440974 -11.739453 4.939879 -74.729960 4.161876 -33.517415 238.578453 -104.800476 232.961524 -6.715222 59.734785 3.500880 17.562206 -5.667852 -12.935380 10.846779 26.117653 8.644328 -0.000002 0.000001 0.000000 14.003960 -6.056143 -57.632323 0.477532 1.124540 -70.788839 -0.000003 0.000000 0.000002 9.020720 -0.634536 -69.612421 2.002760 1.227592 -71.748781 0.000000 0.000002 0.000001 8.815459 0.732918 -84.615402 -0.037304 1.035612 -67.421781 -0.000003 0.000003 -0.000003 10.621803 13.758319 -85.180245 0.877972 0.049521 -65.455588 -0.000001 -0.000002 0.000003 0.000000 0.000001 -0.000000 8.058823 -7.665046 26.009977 -20.347839 -11.245141 29.559512 3.086742 36.368835 -5.525179 -32.060338 0.432566 4.518580 13.286640 -1.424071 -15.052702 -2.129163 -29.582167 5.017549 -0.000000 0.000000 0.000003 1.154168 -3.047771 6.706364 -1.996071 -2.011295 14.885105 0.000001 0.000001 0.000002 -0.633058 -4.243352 11.008561 -0.179130 -4.418659 21.494310 -0.000001 -0.000000 0.000001 -1.105591 -6.412071 9.662787 3.055263 -3.898437 26.496875 -0.000003 -0.000001 0.000002 -5.886260 -8.589794 18.725040 7.314000 -0.240761 27.455615 0.000002 -0.000001 0.000000 -0.000001 0.000001 -0.000000 -0.000000 -0.000001 0.000001 0.000001 -0.000002 -0.000003 -0.000000 -0.000001 0.000000 -0.000000 -0.000001 0.000000 -0.000000 -0.000001 0.000001 0.000001 -0.000002 -0.000003 -0.000000 -0.000001 0.000000 -0.000000 -0.000001 0.000000 -0.000000 -0.000001 0.000001 0.000001 -0.000002 -0.000003 0.000001 -0.000000 0.000001 0.000001 -0.000000 0.000001 0.000001 -0.000000 0.000001 
